<svg t="1635964809078" class="icon" viewBox="0 0 1024 1024" version="1.1" xmlns="http://www.w3.org/2000/svg" p-id="8733" data-spm-anchor-id="a313x.7781069.0.i0" width="200" height="200"><path d="M26.8 906.25l970.35-0.15v90.95c-308.3 0-662.15 0.05-970.35 0.05v-90.85zM208.75 721l221.7 14.1 122.9-88.4c6.3-4.55 13.75-6.3 20.8-5.55v-0.05l203.4 22.05 217.9-70c0.6-0.15 1.1-0.35 1.7-0.5v63.4l-205.9 66.2c-4.25 1.6-8.9 2.25-13.75 1.75l-198.3-21.5-120.9 87c-5.65 4.6-12.95 7.1-20.75 6.65l-228.7-14.55V721h-0.1z m0-427.45l71.7 9.65 136.35-197.8c5.55-8.05 16.2-8.85 22.95-2.25l123.9 121.05 121.8-151.35c3.8-4.7 9.7-6.7 15.5-5.2l133.65 34.1 162.5-74.9v33.3l-153.95 70.95c-3.2 1.7-7 2.25-10.8 1.3L702.95 99.5l-126.05 156.65c-5.7 7.1-15.7 7.95-22.35 1.4L431.5 137.35 300.1 327.9c-3 4.3-9.2 7.1-14.25 6.45l-77.1-10.4v-30.4zM26.8 686.4h90.95v90.95H26.8v-90.95z m0-219.9h90.95v91H26.8V466.5z m0-219.8h90.95v90.95H26.8V246.7z m0-219.85h90.95v91H26.8v-91zM997.2 455.2V79.9l-262.4 337.8-226.55-61.1-158.4 189.7-141.1 44.65v63.15l171.45-43.35 139.45-106.3 245.45 87.6z" fill="#1B9AEE" p-id="8734"></path></svg>
